# xmcd CD database file
# Copyright (C) 1997 Ti Kan
# 
# Track frame offsets:
#     182
#     20627
#     37200
#     57267
#     80487
#     145087
# 
# Disc length: 2128 seconds
# 
# Revision: 1
# Processed by: cddbd v1.4b41PL1 Copyright (c) Steve Scherf et al.
# Submitted via: DiscPlay 4.0.3
# 
DISCID=4f084e06
DTITLE=Richard Betts - Highway Call
DYEAR=1900
DGENRE=
TTITLE0=Long Time Gone
TTITLE1=Rain
TTITLE2=Highway Call
TTITLE3=Let Nature Sing
TTITLE4=Hank Picked
TTITLE5=Kissimee Kid
EXTD=
EXTT0=
EXTT1=
EXTT2=
EXTT3=
EXTT4=
EXTT5=
PLAYORDER=
